<?xml version="1.0" encoding="UTF-8" standalone="no"?>
<!DOCTYPE svg PUBLIC "-//W3C//DTD SVG 1.1//EN" "http://www.w3.org/Graphics/SVG/1.1/DTD/svg11.dtd">
<svg width="100%" height="100%" viewBox="0 0 627 894" version="1.1" xmlns="http://www.w3.org/2000/svg" xmlns:xlink="http://www.w3.org/1999/xlink" xml:space="preserve" xmlns:serif="http://www.serif.com/" style="fill-rule:evenodd;clip-rule:evenodd;stroke-linejoin:round;stroke-miterlimit:2;">
    <path d="M164.526,265.833c26.708,-22.97 80.102,-38.734 141.656,-38.908c75.55,-0.214 138.938,23.127 155.83,54.712c5.956,-18.146 7.245,-38.898 7.207,-52.152c0,-0 3.774,-65.093 -41.62,-110.232c0.067,23.505 -18.934,42.613 -42.438,42.679c-40.287,0.114 -40.341,-35.034 -40.385,-63.55l-0.005,-2.545c-0.123,-43.282 -26.68,-80.31 -64.345,-95.842c5.652,11.541 8.841,24.51 8.88,38.225c0.116,41.28 -24.075,56.718 -52.191,74.662c-22.369,14.276 -47.225,30.137 -64.295,61.864c-8.906,16.553 -13.937,35.498 -13.88,55.616c0.035,12.372 1.991,24.29 5.586,35.471Z" style="fill:#ff5d01;"/>
    <text x="40.607px" y="894px" style="font-family:'HORUSRegular', 'HORUS';font-size:903.176px;">A</text>
</svg>
