<?xml version="1.0" encoding="UTF-8" standalone="no"?>
<!DOCTYPE svg PUBLIC "-//W3C//DTD SVG 1.1//EN" "http://www.w3.org/Graphics/SVG/1.1/DTD/svg11.dtd">
<svg width="100%" height="100%" viewBox="0 0 627 894" version="1.1" xmlns="http://www.w3.org/2000/svg" xmlns:xlink="http://www.w3.org/1999/xlink" xml:space="preserve" xmlns:serif="http://www.serif.com/" style="fill-rule:evenodd;clip-rule:evenodd;stroke-linejoin:round;stroke-miterlimit:2;">
    <g transform="matrix(1,0,0,1,0.719,291.824)">
        <path d="M445.433,22.983C452.722,32.032 456.439,44.243 463.873,68.665L626.281,602.176C566.234,571.026 500.957,548.56 432.115,536.439L326.371,179.099C324.641,173.252 319.27,169.241 313.173,169.241C307.06,169.241 301.68,173.273 299.963,179.14L195.5,536.259C126.338,548.325 60.763,570.832 0.459,602.095L163.664,68.541C171.121,44.162 174.85,31.972 182.14,22.939C188.575,14.965 196.946,8.772 206.454,4.95C217.224,0.622 229.971,0.622 255.466,0.622L372.034,0.622C397.562,0.622 410.326,0.622 421.106,4.96C430.622,8.789 438.998,14.995 445.433,22.983Z"/>
    </g>
    <g transform="matrix(-0.999996,0.00296167,-0.00296167,-0.999996,631.226,892.04)">
        <path d="M464.867,627.566C438.094,650.46 384.655,666.073 323.101,666.073C247.551,666.073 184.229,642.553 167.426,610.921C161.419,629.05 160.072,649.798 160.072,663.052C160.072,663.052 156.114,728.134 201.38,773.401C201.38,749.896 220.435,730.842 243.939,730.842C284.226,730.842 284.181,765.99 284.144,794.506C284.143,795.36 284.142,796.209 284.142,797.051C284.142,840.333 310.595,877.436 348.215,893.075C342.596,881.518 339.444,868.54 339.444,854.825C339.444,813.545 363.679,798.175 391.845,780.311C414.255,766.098 439.155,750.307 456.315,718.629C465.268,702.101 470.352,683.17 470.352,663.052C470.352,650.68 468.43,638.757 464.867,627.566Z" style="fill:rgb(255,93,1);"/>
    </g>
</svg>
